%TF.GenerationSoftware,KiCad,Pcbnew,10.0.0*%
%TF.CreationDate,2026-06-24T20:22:13+02:00*%
%TF.ProjectId,Leiterplatte_Steuerbox,4c656974-6572-4706-9c61-7474655f5374,rev?*%
%TF.SameCoordinates,Original*%
%TF.FileFunction,Soldermask,Bot*%
%TF.FilePolarity,Negative*%
%FSLAX46Y46*%
G04 Gerber Fmt 4.6, Leading zero omitted, Abs format (unit mm)*
G04 Created by KiCad (PCBNEW 10.0.0) date 2026-06-24 20:22:13*
%MOMM*%
%LPD*%
G01*
G04 APERTURE LIST*
G04 Aperture macros list*
%AMRoundRect*
0 Rectangle with rounded corners*
0 $1 Rounding radius*
0 $2 $3 $4 $5 $6 $7 $8 $9 X,Y pos of 4 corners*
0 Add a 4 corners polygon primitive as box body*
4,1,4,$2,$3,$4,$5,$6,$7,$8,$9,$2,$3,0*
0 Add four circle primitives for the rounded corners*
1,1,$1+$1,$2,$3*
1,1,$1+$1,$4,$5*
1,1,$1+$1,$6,$7*
1,1,$1+$1,$8,$9*
0 Add four rect primitives between the rounded corners*
20,1,$1+$1,$2,$3,$4,$5,0*
20,1,$1+$1,$4,$5,$6,$7,0*
20,1,$1+$1,$6,$7,$8,$9,0*
20,1,$1+$1,$8,$9,$2,$3,0*%
G04 Aperture macros list end*
%ADD10RoundRect,0.250000X0.650000X1.550000X-0.650000X1.550000X-0.650000X-1.550000X0.650000X-1.550000X0*%
%ADD11O,1.800000X3.600000*%
%ADD12C,3.200000*%
%ADD13O,1.200000X2.000000*%
%ADD14R,1.200000X2.000000*%
%ADD15O,2.000000X1.200000*%
%ADD16R,2.000000X1.200000*%
%ADD17RoundRect,0.300000X1.000000X0.700000X-1.000000X0.700000X-1.000000X-0.700000X1.000000X-0.700000X0*%
%ADD18RoundRect,1.000000X0.000010X-0.300000X0.000010X0.300000X-0.000010X0.300000X-0.000010X-0.300000X0*%
%ADD19RoundRect,1.000000X0.300000X0.000010X-0.300000X0.000010X-0.300000X-0.000010X0.300000X-0.000010X0*%
%ADD20RoundRect,1.000000X-0.000010X0.300000X-0.000010X-0.300000X0.000010X-0.300000X0.000010X0.300000X0*%
%ADD21C,2.000000*%
G04 APERTURE END LIST*
D10*
%TO.C,Spannungsversorgung1*%
X228820000Y-86995000D03*
D11*
X225320000Y-86995000D03*
%TD*%
D12*
%TO.C,H3*%
X236060000Y-43180000D03*
%TD*%
D13*
%TO.C,U1*%
X119380000Y-62226320D03*
X121920000Y-62230000D03*
X124460000Y-62230000D03*
X127000000Y-62230000D03*
X129540000Y-62230000D03*
X132080000Y-62230000D03*
X134620000Y-62230000D03*
X137160000Y-62230000D03*
X139700000Y-62230000D03*
X142240000Y-62230000D03*
X144780000Y-62230000D03*
X147320000Y-62230000D03*
X149860000Y-62230000D03*
X152400000Y-62230000D03*
X154940000Y-62230000D03*
X157480000Y-62230000D03*
X160020000Y-62230000D03*
X162557280Y-62226320D03*
X165097280Y-62226320D03*
X167640000Y-62226320D03*
X167640000Y-44426320D03*
X165100000Y-44426320D03*
X162560000Y-44426320D03*
X160020000Y-44426320D03*
X157480000Y-44426320D03*
X154940000Y-44426320D03*
X152400000Y-44426320D03*
X149860000Y-44426320D03*
X147320000Y-44426320D03*
X144780000Y-44426320D03*
X142240000Y-44426320D03*
X139700000Y-44426320D03*
X137160000Y-44426320D03*
X134620000Y-44426320D03*
X132080000Y-44426320D03*
X129540000Y-44426320D03*
X127000000Y-44426320D03*
X124460000Y-44426320D03*
X121920000Y-44426320D03*
D14*
X119380000Y-44426320D03*
%TD*%
D15*
%TO.C,DCDC-24V5V1*%
X178930000Y-56930000D03*
X178930000Y-59470000D03*
X178930000Y-70390000D03*
X178930000Y-72930000D03*
X202300000Y-56930000D03*
X202300000Y-59470000D03*
X202300000Y-70390000D03*
X202300000Y-72930000D03*
%TD*%
D10*
%TO.C,Schrittmotor1*%
X187220000Y-86995000D03*
D11*
X183720000Y-86995000D03*
X180220000Y-86995000D03*
X176720000Y-86995000D03*
%TD*%
D12*
%TO.C,H2*%
X74930000Y-90170000D03*
%TD*%
%TO.C,H4*%
X236080000Y-90170000D03*
%TD*%
D16*
%TO.C,LCDModuleST7735*%
X81915000Y-40005000D03*
D15*
X84455000Y-40005000D03*
X86995000Y-40005000D03*
X89535000Y-40005000D03*
X92075000Y-40005000D03*
X94615000Y-40005000D03*
X97155000Y-40005000D03*
%TD*%
D14*
%TO.C,U2*%
X165100000Y-66040000D03*
D13*
X162560000Y-66040000D03*
X160020000Y-66040000D03*
X157480000Y-66040000D03*
X154940000Y-66040000D03*
X152400000Y-66040000D03*
X149860000Y-66040000D03*
X147320000Y-66040000D03*
X144780000Y-66040000D03*
X142240000Y-66040000D03*
X139700000Y-66040000D03*
X137160000Y-66040000D03*
X134620000Y-66040000D03*
X132080000Y-66040000D03*
X129540000Y-66040000D03*
X127000000Y-66040000D03*
X124460000Y-66040000D03*
X121920000Y-66040000D03*
X119380000Y-66040000D03*
X119382720Y-91436320D03*
X121922720Y-91436320D03*
X124460000Y-91440000D03*
X127000000Y-91440000D03*
X129540000Y-91440000D03*
X132080000Y-91440000D03*
X134620000Y-91440000D03*
X137160000Y-91440000D03*
X139700000Y-91440000D03*
X142240000Y-91440000D03*
X144780000Y-91440000D03*
X147320000Y-91440000D03*
X149860000Y-91440000D03*
X152400000Y-91440000D03*
X154940000Y-91440000D03*
X157480000Y-91440000D03*
X160020000Y-91440000D03*
X162560000Y-91440000D03*
X165100000Y-91440000D03*
%TD*%
D15*
%TO.C,DCDC-24V9V1*%
X211220000Y-56940000D03*
X211220000Y-59480000D03*
X211220000Y-70400000D03*
X211220000Y-72940000D03*
X234590000Y-56940000D03*
X234590000Y-59480000D03*
X234590000Y-70400000D03*
X234590000Y-72940000D03*
%TD*%
D10*
%TO.C,MotorDriver1*%
X218440000Y-86995000D03*
D11*
X214940000Y-86995000D03*
X211440000Y-86995000D03*
X207940000Y-86995000D03*
X204440000Y-86995000D03*
X200940000Y-86995000D03*
X197440000Y-86995000D03*
X193940000Y-86995000D03*
%TD*%
D12*
%TO.C,H1*%
X74930000Y-43180000D03*
%TD*%
D17*
%TO.C,Endlage1*%
X110750000Y-53380000D03*
D18*
X107950000Y-50580000D03*
D19*
X105150000Y-53380000D03*
D20*
X107950000Y-56180000D03*
D21*
X107950000Y-53380000D03*
%TD*%
D17*
%TO.C,Hall-Sensor1*%
X87890000Y-53380000D03*
D18*
X85090000Y-50580000D03*
D19*
X82290000Y-53380000D03*
D20*
X85090000Y-56180000D03*
D21*
X85090000Y-53380000D03*
%TD*%
D17*
%TO.C,ToF-Vereinzler1*%
X87890000Y-80010000D03*
D18*
X85090000Y-77210000D03*
D19*
X82290000Y-80010000D03*
D20*
X85090000Y-82810000D03*
D21*
X85090000Y-80010000D03*
%TD*%
D17*
%TO.C,Schrittmotor2*%
X181870000Y-49490000D03*
D18*
X179070000Y-46690000D03*
D19*
X176270000Y-49490000D03*
D20*
X179070000Y-52290000D03*
D21*
X179070000Y-49490000D03*
%TD*%
%TO.C,Boot_ESP_ETH1*%
X214780000Y-76780000D03*
X208280000Y-76780000D03*
X214780000Y-81280000D03*
X208280000Y-81280000D03*
%TD*%
D17*
%TO.C,ServoBalancer1*%
X227275000Y-49530000D03*
D18*
X224475000Y-46730000D03*
D19*
X221675000Y-49530000D03*
D20*
X224475000Y-52330000D03*
D21*
X224475000Y-49530000D03*
%TD*%
%TO.C,Boot_ESP_DevkitC1*%
X204470000Y-76780000D03*
X197970000Y-76780000D03*
X204470000Y-81280000D03*
X197970000Y-81280000D03*
%TD*%
D17*
%TO.C,ServoVereinzler1*%
X204650000Y-49490000D03*
D18*
X201850000Y-46690000D03*
D19*
X199050000Y-49490000D03*
D20*
X201850000Y-52290000D03*
D21*
X201850000Y-49490000D03*
%TD*%
D17*
%TO.C,ToFBalancer1*%
X110750000Y-80010000D03*
D18*
X107950000Y-77210000D03*
D19*
X105150000Y-80010000D03*
D20*
X107950000Y-82810000D03*
D21*
X107950000Y-80010000D03*
%TD*%
M02*
