M48
; DRILL file KiCad 10.0.0 date 2026-06-24T20:22:13
; FORMAT={-:-/ absolute / inch / decimal}
; #@! TF.CreationDate,2026-06-24T20:22:13+02:00
; #@! TF.GenerationSoftware,Kicad,Pcbnew,10.0.0
; #@! TF.FileFunction,Plated,1,2,PTH
FMAT,2
INCH
; #@! TA.AperFunction,Plated,PTH,ViaDrill
T1C0.0118
; #@! TA.AperFunction,Plated,PTH,ComponentDrill
T2C0.0315
; #@! TA.AperFunction,Plated,PTH,ComponentDrill
T3C0.0433
; #@! TA.AperFunction,Plated,PTH,ComponentDrill
T4C0.0472
%
G90
G05
T1
X2.8256Y-3.6539
X2.8311Y-1.5327
X2.8559Y-2.0039
X2.8559Y-2.2039
X2.8559Y-2.4039
X2.8559Y-2.6039
X2.8559Y-2.8039
X2.8559Y-3.0039
X2.8559Y-3.2039
X2.8559Y-3.4039
X3.0Y-2.0
X3.0Y-2.2
X3.0Y-2.4
X3.0Y-2.6
X3.0Y-2.8
X3.0Y-3.0
X3.0Y-3.2
X3.0Y-3.4
X3.1142Y-1.7323
X3.122Y-2.311
X3.122Y-2.4961
X3.124Y-2.9724
X3.1457Y-1.5748
X3.1496Y-2.126
X3.1752Y-3.0374
X3.189Y-1.8543
X3.198Y-3.6366
X3.2Y-2.2
X3.2Y-2.4
X3.2Y-2.6
X3.2Y-3.4
X3.2004Y-3.5169
X3.2244Y-1.5276
X3.2677Y-2.0118
X3.2677Y-3.2283
X3.2776Y-2.9823
X3.2913Y-3.0961
X3.3102Y-2.8929
X3.3205Y-2.778
X3.3795Y-2.4173
X3.3957Y-2.9528
X3.398Y-3.6366
X3.4Y-3.4
X3.4004Y-3.5169
X3.4094Y-2.6693
X3.4449Y-1.8504
X3.4449Y-1.9587
X3.4488Y-3.0157
X3.4606Y-2.0354
X3.4606Y-2.1693
X3.4606Y-3.0827
X3.4646Y-2.3976
X3.4646Y-3.2205
X3.4764Y-2.6024
X3.4764Y-3.3937
X3.5Y-3.0157
X3.5512Y-3.0811
X3.5669Y-1.752
X3.5748Y-3.1417
X3.598Y-3.6366
X3.6Y-2.4
X3.6Y-2.6
X3.6Y-3.0
X3.6004Y-3.5169
X3.6122Y-3.2874
X3.6417Y-1.8701
X3.6417Y-1.9783
X3.6811Y-1.7815
X3.6909Y-3.1102
X3.7303Y-1.7224
X3.7882Y-1.9047
X3.7894Y-1.7815
X3.798Y-3.6366
X3.7992Y-1.7028
X3.8Y-2.2
X3.8Y-2.4
X3.8Y-2.6
X3.8Y-2.8
X3.8Y-3.0
X3.8Y-3.2
X3.8004Y-3.5169
X3.8287Y-3.2874
X3.878Y-1.6929
X3.878Y-1.7815
X3.8878Y-3.1102
X3.95Y-1.6
X3.9862Y-1.7815
X3.993Y-2.611
X3.998Y-3.6366
X3.9992Y-2.4062
X3.9992Y-2.7956
X4.0Y-2.0
X4.0Y-2.2
X4.0Y-3.0
X4.0Y-3.2
X4.0004Y-3.5169
X4.0276Y-3.2778
X4.0354Y-1.752
X4.0453Y-3.1102
X4.0945Y-3.3071
X4.1Y-1.6
X4.1Y-1.7
X4.1059Y-1.7787
X4.1213Y-3.2209
X4.1339Y-2.0394
X4.1378Y-2.1693
X4.1496Y-3.378
X4.1732Y-3.3071
X4.189Y-1.9921
X4.1898Y-3.2106
X4.198Y-3.6366
X4.1996Y-3.0992
X4.2Y-2.4
X4.2Y-2.6
X4.2Y-2.8
X4.2004Y-3.5169
X4.25Y-1.7
X4.2574Y-1.5986
X4.315Y-1.9921
X4.315Y-2.1929
X4.3307Y-3.2972
X4.3543Y-3.2205
X4.375Y-2.3179
X4.398Y-3.6366
X4.3993Y-1.9973
X4.4Y-2.2
X4.4Y-2.4
X4.4Y-2.6
X4.4Y-2.8
X4.4Y-3.0
X4.4004Y-3.5169
X4.4008Y-1.7791
X4.4291Y-3.1496
X4.45Y-1.6
X4.45Y-1.7
X4.4626Y-3.3189
X4.5211Y-3.149
X4.5276Y-2.0866
X4.55Y-1.75
X4.55Y-1.85
X4.5992Y-3.0831
X4.5994Y-2.2
X4.6Y-2.6
X4.6Y-2.8
X4.6Y-3.0
X4.6106Y-3.2839
X4.65Y-1.65
X4.6516Y-1.5669
X4.7114Y-3.1469
X4.7118Y-3.3138
X4.7244Y-2.1024
X4.7488Y-1.9004
X4.7665Y-3.4583
X4.7831Y-3.6642
X4.7972Y-3.0843
X4.8Y-2.2
X4.8Y-2.8
X4.8Y-3.0
X4.8496Y-1.8984
X4.85Y-1.75
X4.85Y-2.45
X4.8539Y-1.5709
X4.8547Y-1.6406
X4.8937Y-2.1063
X4.8976Y-2.2756
X4.9Y-2.9
X4.9059Y-3.1748
X4.9087Y-3.3039
X4.9087Y-3.4551
X4.95Y-1.75
X4.95Y-2.45
X4.9831Y-3.6642
X4.998Y-2.8992
X5.0Y-2.2
X5.0Y-2.8
X5.0003Y-3.0
X5.0051Y-3.0823
X5.0394Y-1.6378
X5.0476Y-3.4642
X5.0528Y-1.9043
X5.0756Y-1.5724
X5.0984Y-2.1063
X5.11Y-3.298
X5.1177Y-3.1756
X5.148Y-1.9004
X5.15Y-2.6
X5.1539Y-3.4642
X5.1831Y-3.6642
X5.1968Y-2.7962
X5.2Y-1.6
X5.2Y-2.2
X5.2Y-2.9
X5.2Y-3.0
X5.202Y-3.0846
X5.2496Y-3.463
X5.25Y-2.6
X5.2528Y-3.3122
X5.2555Y-3.1657
X5.2953Y-2.1063
X5.3449Y-1.8921
X5.3483Y-2.4497
X5.35Y-1.75
X5.3531Y-3.461
X5.3575Y-1.6579
X5.3831Y-3.6642
X5.3959Y-3.3543
X5.3996Y-1.5343
X5.4Y-2.2
X5.4Y-3.0
X5.4035Y-3.2055
X5.4055Y-2.0709
X5.4363Y-1.9449
X5.4404Y-2.0709
X5.4469Y-3.4539
X5.4476Y-1.8874
X5.4496Y-3.3024
X5.45Y-1.75
X5.4504Y-2.4497
X5.4551Y-3.1555
X5.4677Y-1.9606
X5.4719Y-2.0709
X5.5Y-2.2008
X5.5Y-2.9
X5.5Y-3.2248
X5.5236Y-1.9764
X5.5236Y-2.0945
X5.542Y-2.3707
X5.5484Y-3.45
X5.561Y-2.7067
X5.5693Y-2.152
X5.578Y-3.3094
X5.5827Y-1.563
X5.5831Y-3.6642
X5.6Y-2.9
X5.6Y-3.0
X5.6114Y-1.6382
X5.6496Y-2.7067
X5.652Y-3.1457
X5.6614Y-2.1811
X5.6669Y-2.3874
X5.7Y-3.2016
X5.7087Y-2.8543
X5.7189Y-2.1126
X5.735Y-3.1717
X5.7366Y-3.3508
X5.7441Y-2.2953
X5.7563Y-3.4122
X5.7579Y-2.7067
X5.7602Y-2.0079
X5.7756Y-2.0787
X5.7795Y-3.022
X5.7831Y-3.6642
X5.789Y-1.6402
X5.7913Y-1.5657
X5.7972Y-2.9429
X5.8Y-2.2
X5.8012Y-2.0059
X5.8071Y-2.8642
X5.8307Y-1.9803
X5.8425Y-2.0906
X5.8425Y-2.3583
X5.8484Y-3.4945
X5.85Y-1.75
X5.85Y-2.45
X5.85Y-3.6
X5.8815Y-3.2945
X5.8831Y-3.1748
X5.8976Y-2.1929
X5.9055Y-2.8543
X5.9055Y-2.9429
X5.9252Y-2.0709
X5.9319Y-3.398
X5.9449Y-2.3465
X5.9477Y-3.6047
X5.95Y-2.45
X5.9534Y-1.75
X5.9831Y-3.6642
X5.9882Y-2.189
X6.0Y-1.6
X6.0Y-2.0
X6.0039Y-2.8543
X6.013Y-3.1346
X6.0236Y-3.2677
X6.0472Y-2.3425
X6.0591Y-2.1063
X6.06Y-3.26
X6.1Y-2.9
X6.1496Y-2.3425
X6.1614Y-3.4055
X6.1995Y-1.5982
X6.2Y-2.0
X6.2Y-2.2
X6.2098Y-3.1248
X6.2835Y-2.1772
X6.2941Y-3.1642
X6.2992Y-3.3563
X6.35Y-1.75
X6.35Y-2.45
X6.3622Y-2.2717
X6.395Y-1.5995
X6.3993Y-2.8979
X6.4Y-2.0
X6.4Y-2.2
X6.4079Y-2.9904
X6.426Y-2.9646
X6.4442Y-3.5984
X6.4469Y-2.9409
X6.45Y-2.449
X6.4508Y-1.835
X6.4527Y-1.7492
X6.4705Y-2.9173
X6.4909Y-3.1543
X6.4961Y-3.3465
X6.5295Y-2.9094
X6.5295Y-2.9409
X6.5295Y-2.9882
X6.5515Y-1.9277
X6.5559Y-3.6031
X6.589Y-1.5995
X6.5965Y-3.6041
X6.6Y-2.2
X6.6Y-2.6
X6.6Y-2.8
X6.6Y-3.4
X6.6378Y-3.0197
X6.7028Y-1.815
X6.7205Y-2.4213
X6.752Y-1.9173
X6.7579Y-2.124
X6.7579Y-2.3209
X6.7972Y-3.6591
X6.7993Y-3.3921
X6.8Y-1.6
X6.8Y-2.6
X6.8Y-2.8
X6.8Y-3.6
X6.8067Y-2.886
X6.8071Y-3.1071
X6.8217Y-2.8583
X6.8346Y-3.0433
X6.9083Y-1.7181
X6.9094Y-1.811
X6.9213Y-1.878
X6.9213Y-3.2283
X6.9236Y-3.3201
X6.9685Y-2.0276
X6.9764Y-2.9409
X6.9764Y-3.0433
X6.9843Y-2.2953
X6.9972Y-3.6591
X7.0Y-1.6
X7.0Y-3.6
X7.0276Y-3.3228
X7.0276Y-3.4331
X7.0433Y-2.3858
X7.0472Y-2.1969
X7.0512Y-3.0551
X7.0988Y-2.2913
X7.1126Y-1.7157
X7.1181Y-2.1024
X7.1457Y-1.8504
X7.1654Y-3.4331
X7.189Y-3.3307
X7.1972Y-3.6591
X7.2Y-1.6
X7.2Y-2.2
X7.2Y-2.4
X7.2Y-2.8
X7.2Y-3.0
X7.2Y-3.6
X7.2047Y-1.6929
X7.2047Y-1.811
X7.2047Y-2.0866
X7.2047Y-3.1693
X7.2835Y-1.811
X7.3311Y-1.7134
X7.3972Y-3.6591
X7.4Y-1.6
X7.4Y-2.2
X7.4Y-2.4
X7.4Y-2.8
X7.4Y-3.0
X7.4Y-3.6
X7.4055Y-3.1732
X7.5Y-1.8307
X7.5Y-2.0276
X7.5311Y-1.7134
X7.5591Y-3.4252
X7.5972Y-3.6591
X7.5978Y-2.1924
X7.6Y-1.6
X7.6Y-2.4
X7.6Y-2.8
X7.6Y-3.0
X7.6Y-3.6
X7.6024Y-3.1693
X7.6575Y-1.8307
X7.6575Y-2.0276
X7.6969Y-3.4252
X7.7311Y-1.7134
X7.7323Y-3.0236
X7.7717Y-3.5236
X7.7972Y-3.6591
X7.8Y-1.6
X7.8Y-3.6
X7.8583Y-3.0236
X7.8583Y-3.2717
X7.878Y-1.8465
X7.8976Y-3.1654
X7.9094Y-3.5197
X7.9158Y-2.2912
X7.939Y-1.5965
X7.9488Y-3.1654
X7.9646Y-2.3937
X7.9685Y-2.1929
X7.9882Y-3.0236
X7.9972Y-3.6577
X8.0Y-3.5986
X8.0079Y-1.8425
X8.0236Y-2.2894
X8.0512Y-3.5236
X8.0717Y-2.0622
X8.085Y-1.8492
X8.122Y-1.6142
X8.122Y-1.7831
X8.126Y-3.0236
X8.189Y-3.5236
X8.1972Y-3.6591
X8.2Y-2.2
X8.2Y-2.4
X8.2Y-2.8
X8.2Y-3.6
X8.2283Y-1.8031
X8.2559Y-1.6122
X8.2598Y-2.2933
X8.2602Y-1.7091
X8.2677Y-3.0197
X8.2992Y-3.1614
X8.315Y-2.3898
X8.3189Y-2.189
X8.3268Y-3.2717
X8.3268Y-3.5236
X8.3504Y-3.1614
X8.3744Y-2.2921
X8.3937Y-3.0236
X8.3972Y-3.6591
X8.4Y-1.6
X8.4Y-1.8
X8.4Y-2.0
X8.4Y-2.2
X8.4Y-2.4
X8.4Y-3.6
X8.4602Y-1.7091
X8.4606Y-3.5236
X8.5197Y-3.0236
X8.5972Y-3.6591
X8.6Y-1.8
X8.6Y-2.0
X8.6Y-2.2
X8.6Y-2.4
X8.6Y-2.8
X8.6Y-3.0
X8.6Y-3.2
X8.6Y-3.6
X8.6602Y-1.7091
X8.7244Y-1.8858
X8.7244Y-2.0157
X8.7972Y-3.6591
X8.8Y-2.4
X8.8Y-3.6
X8.8941Y-1.7961
X8.9Y-1.8776
X8.9803Y-1.813
X8.9846Y-2.0654
X8.9972Y-3.6591
X9.0Y-2.2
X9.0Y-2.6
X9.0Y-2.8
X9.0Y-3.0
X9.0Y-3.2
X9.0Y-3.6
X9.0079Y-3.3228
X9.0079Y-3.5315
X9.0433Y-1.7106
X9.0669Y-2.4016
X9.0866Y-3.4331
X9.0886Y-1.6575
X9.1339Y-1.7992
X9.1831Y-1.5374
X9.1862Y-2.2906
X9.1879Y-3.1966
X9.2Y-3.0
X9.2Y-3.4
X9.2323Y-2.4
X9.2362Y-2.1969
X9.2953Y-2.2894
X9.4Y-1.5386
X9.4Y-1.8
X9.4Y-2.0
X9.4Y-2.2
X9.4Y-2.4
X9.4Y-2.8
X9.4Y-3.0
X9.4Y-3.2
X9.4Y-3.4
X9.4073Y-2.602
X9.4185Y-3.6583
T2
X3.225Y-1.575
X3.325Y-1.575
X3.425Y-1.575
X3.525Y-1.575
X3.625Y-1.575
X3.725Y-1.575
X3.825Y-1.575
X4.7Y-1.7491
X4.7Y-2.4499
X4.7Y-2.6
X4.7001Y-3.5999
X4.8Y-1.7491
X4.8Y-2.45
X4.8Y-2.6
X4.8001Y-3.5999
X4.9Y-1.7491
X4.9Y-2.45
X4.9Y-2.6
X4.9Y-3.6
X5.0Y-1.7491
X5.0Y-2.45
X5.0Y-2.6
X5.0Y-3.6
X5.1Y-1.7491
X5.1Y-2.45
X5.1Y-2.6
X5.1Y-3.6
X5.2Y-1.7491
X5.2Y-2.45
X5.2Y-2.6
X5.2Y-3.6
X5.3Y-1.7491
X5.3Y-2.45
X5.3Y-2.6
X5.3Y-3.6
X5.4Y-1.7491
X5.4Y-2.45
X5.4Y-2.6
X5.4Y-3.6
X5.5Y-1.7491
X5.5Y-2.45
X5.5Y-2.6
X5.5Y-3.6
X5.6Y-1.7491
X5.6Y-2.45
X5.6Y-2.6
X5.6Y-3.6
X5.7Y-1.7491
X5.7Y-2.45
X5.7Y-2.6
X5.7Y-3.6
X5.8Y-1.7491
X5.8Y-2.45
X5.8Y-2.6
X5.8Y-3.6
X5.9Y-1.7491
X5.9Y-2.45
X5.9Y-2.6
X5.9Y-3.6
X6.0Y-1.7491
X6.0Y-2.45
X6.0Y-2.6
X6.0Y-3.6
X6.1Y-1.7491
X6.1Y-2.45
X6.1Y-2.6
X6.1Y-3.6
X6.2Y-1.7491
X6.2Y-2.45
X6.2Y-2.6
X6.2Y-3.6
X6.3Y-1.7491
X6.3Y-2.45
X6.3Y-2.6
X6.3Y-3.6
X6.3999Y-2.4499
X6.4Y-1.7491
X6.4Y-2.6
X6.4Y-3.6
X6.4999Y-2.4499
X6.5Y-1.7491
X6.5Y-2.6
X6.5Y-3.6
X6.6Y-1.7491
X6.6Y-2.4499
X7.0445Y-2.2413
X7.0445Y-2.3413
X7.0445Y-2.7713
X7.0445Y-2.8713
X7.9646Y-2.2413
X7.9646Y-2.3413
X7.9646Y-2.7713
X7.9646Y-2.8713
X8.3157Y-2.2417
X8.3157Y-2.3417
X8.3157Y-2.7717
X8.3157Y-2.8717
X9.2358Y-2.2417
X9.2358Y-2.3417
X9.2358Y-2.7717
X9.2358Y-2.8717
T3
X7.7941Y-3.0228
X7.7941Y-3.2
X8.05Y-3.0228
X8.05Y-3.2
X8.2Y-3.0228
X8.2Y-3.2
X8.4559Y-3.0228
X8.4559Y-3.2
T4
X3.2516Y-2.1016
X3.2516Y-3.15
X3.35Y-2.0031
X3.35Y-2.1016
X3.35Y-2.2
X3.35Y-3.0516
X3.35Y-3.15
X3.35Y-3.2484
X3.4484Y-2.1016
X3.4484Y-3.15
X4.1516Y-2.1016
X4.1516Y-3.15
X4.25Y-2.0031
X4.25Y-2.1016
X4.25Y-2.2
X4.25Y-3.0516
X4.25Y-3.15
X4.25Y-3.2484
X4.3484Y-2.1016
X4.3484Y-3.15
X6.9516Y-1.9484
X6.9575Y-3.425
X7.05Y-1.85
X7.05Y-1.9484
X7.05Y-2.0469
X7.0953Y-3.425
X7.1484Y-1.9484
X7.2331Y-3.425
X7.3709Y-3.425
X7.6354Y-3.425
X7.7732Y-3.425
X7.8484Y-1.9484
X7.911Y-3.425
X7.9469Y-1.85
X7.9469Y-1.9484
X7.9469Y-2.0469
X8.0453Y-1.9484
X8.0488Y-3.425
X8.1866Y-3.425
X8.3244Y-3.425
X8.4622Y-3.425
X8.6Y-3.425
X8.7392Y-1.95
X8.8376Y-1.8516
X8.8376Y-1.95
X8.8376Y-2.0484
X8.8709Y-3.425
X8.936Y-1.95
X9.0087Y-3.425
M30
